<?xml version="1.0" encoding="UTF-8" standalone="no"?>
<!-- Created with Inkscape (http://www.inkscape.org/) -->

<svg
   xmlns:dc="http://purl.org/dc/elements/1.1/"
   xmlns:cc="http://creativecommons.org/ns#"
   xmlns:rdf="http://www.w3.org/1999/02/22-rdf-syntax-ns#"
   xmlns:svg="http://www.w3.org/2000/svg"
   xmlns="http://www.w3.org/2000/svg"
   xmlns:sodipodi="http://sodipodi.sourceforge.net/DTD/sodipodi-0.dtd"
   xmlns:inkscape="http://www.inkscape.org/namespaces/inkscape"
   sodipodi:docname="lenin_sil.svg"
   id="svg4331"
   version="1.1"
   viewBox="0 0 210 297"
   height="297mm"
   width="210mm"
   inkscape:version="0.92.4 (5da689c313, 2019-01-14)">
  <defs
     id="defs4325" />
  <sodipodi:namedview
     id="base"
     pagecolor="#ffffff"
     bordercolor="#666666"
     borderopacity="1.0"
     inkscape:pageopacity="0.0"
     inkscape:pageshadow="2"
     inkscape:zoom="1.979899"
     inkscape:cx="287.85131"
     inkscape:cy="739.07575"
     inkscape:document-units="mm"
     inkscape:current-layer="layer1"
     showgrid="false"
     inkscape:window-width="1920"
     inkscape:window-height="996"
     inkscape:window-x="-4"
     inkscape:window-y="-4"
     inkscape:window-maximized="1" />
  <metadata
     id="metadata4328">
    <rdf:RDF>
      <cc:Work
         rdf:about="">
        <dc:format>image/svg+xml</dc:format>
        <dc:type
           rdf:resource="http://purl.org/dc/dcmitype/StillImage" />
      </cc:Work>
    </rdf:RDF>
  </metadata>
  <g
     inkscape:label="Layer 1"
     inkscape:groupmode="layer"
     id="layer1"
     style="opacity:1">
    <path
       sodipodi:nodetypes="cccccccccccccccccccccscccccccccccccccccccccccccccccccccccccccccccccccsccc"
       inkscape:connector-curvature="0"
       id="path3091-2-4"
       d="M52.33789 118.2645L52.33369 117.47127L52.356895625 116.770035L52.098867 116.10789L51.672305 115.92797875L51.18286 115.97258L50.0479352539 115.900478184L48.8992137188 115.353253594L47.7404318242 114.45231002L46.575326 113.31905125L44.2410882813 110.841203281L43.0794292461 109.73942166L41.926392 108.89094L40.2621651719 108.123842168L38.518958 107.643416719L36.7159552031 107.384733223L34.8723415 107.28286125L31.14002025 107.289830156L27.475472 107.14488L25.8108199082 106.946745098L23.9684442656 106.940382031L20.125536625 107.02244125L18.3125117754 106.870598457L16.6967776719 106.429997344L15.9921926418 106.063870999L15.3720878887 105.580505371L14.8481826091 104.964883894L14.432196 104.20199L14.5553521406 100.674118203L14.803057125 97.101849125L15.1529512441 95.3920031738L15.7491855469 93.7825829844L16.6634943574 92.310763584L17.967612 91.01372L19.1846763926 90.1112466582L20.0263497656 89.0472758281L20.5925609121 87.8658406777L20.983238625 86.610974375L21.6377089219 84.0570809844L22.1013590918 82.8461202324L22.789191 81.737861L22.7827150303 81.1317445381L22.6045252422 80.5898313516L21.8606691875 79.657984L19.716706 78.11778975L18.8272587734 77.3469196328L18.5398756064 76.9257393721L18.3999410625 76.467185375L18.4393713857 75.9610999404L18.6900828203 75.3973253672L19.1839916104 74.7657039541L19.953014 74.056078L21.1160160918 73.3996931719L21.3853958977 73.0770845605L21.4829047969 72.7545935L21.2709396348 72.0991490781L20.697380125 71.41173L19.9794857871 70.6707063594L19.3345161406 69.85444825L18.9797307051 68.9413257656L18.9790506663 68.4416810371L19.132389 67.909709L28.467911 56.091981L27.6479428281 54.6359945469L27.041254125 53.028836125L26.9122315176 52.1706310684L26.9497391094 51.2771093906L27.1915136777 50.3490965488L27.675292 49.387418L30.4077975 42.850211125L31.62361 39.5263119219L32.575928 36.076986L33.1253612031 33.8206725684L33.9369755625 31.6753486719L34.9842488281 29.6449786582L36.24065875 27.733526875L37.6796830781 25.9449576699L39.2747995625 24.2832353906L40.9994859531 22.7523243848L42.82722 21.356189L48.8129718906 18.6025589531L51.8827490684 17.3688398105L55.001188625 16.270673125L58.1663367285 15.3381752988L61.3762395469 14.6014627344L64.628943248 14.090651834L67.922494 13.835859L70.0409628711 13.8352674297L72.1249215938 14.039221625L76.21819925 14.88846325L80.2601082813 16.03897575L84.30843 17.146151L86.6572962402 18.6545993164L88.8719969844 20.3362044687L90.9593017676 22.1712125117L92.925980125 24.1398695L96.5245357031 28.3991145312L99.72182 32.955908L102.073785625 36.93480675L104.32032 41.00928925L105.309204766 43.1040617109L106.157916875 45.248754875L106.828518047 47.4520436641L107.28307 49.722603L107.459252813 53.1564807656L107.7558875 56.586682125L107.985978438 60.0161104219L107.96253 63.447669L107.623103438 67.0399887969L106.83021 70.515321625L105.588906563 73.8572086406L103.90425 77.049191L101.927869141 80.0845052656L99.969280625 83.113687625L99.1275986816 84.685247416L98.4474930469 86.3263959219L97.9813397949 88.060840373L97.781515 89.912288L96.9356125703 91.5501531641L95.70811975 92.84332925L94.1920376172 93.8755433984L92.48036725 94.73052275L88.842266125 96.243685625L87.1018375234 97.0693234297L85.537825 98.052635L83.3459200078 98.8339776191L81.246872 99.7955018906L77.21682375 102.045007375L73.226633875 104.372975422L71.1774088359 105.432577896L69.055256 106.35123L65.4130052344 107.958330156L61.691549875 109.96218875L54.229017 114.35041L53.237114 114.88305L51.676623 115.13753L50.686566 115.08083L50.19253 114.98778125L49.730969 114.73634L48.7074317168 114.083838594L47.7827172344 113.28374375L46.092238875 111.44891L44.3844983281 109.64811125L43.4382061113 108.890560156L42.38446 108.29762L40.7505746465 107.544502578L39.0391493594 107.0728325L37.2690189238 106.818863047L35.459018125 106.7188475L31.7947445781 106.72569125L28.197007 106.58339L26.556962209 106.393173867L24.7330379844 106.398280937L20.914256625 106.5132975L19.1097521855 106.382623398L17.5020737031 105.966105312L16.8017868044 105.613063589L16.1863975254 105.143451445L15.6678029094 104.542232407L15.2579 103.79437L15.38925025 100.372569734L15.65540775 96.957299625L16.0111901172 95.3276956543L16.607255375 93.7904229531L17.5124638828 92.3757144316L18.795676 91.113803L19.9934224824 90.2119918594L20.8273204219 89.12578825L21.3939105566 87.9070356406L21.789733625 86.6075775L22.4552415156 83.9739185L22.9180078145 82.7434045781L23.59617 81.639559L23.5898112195 81.0444931062L23.4148693184 80.512459959L22.6845735469 79.5976018594L20.579695875 78.085488125L19.7064635449 77.3286723105L19.4243192249 76.9151708772L19.2869352656 76.4649770781L19.3256460154 75.9681184021L19.5717858223 75.4146223379L20.81169 74.097828L21.9534931973 73.4534102676L22.2179633064 73.1366834304L22.3136955781 72.8200720156L22.1055960762 72.1765776621L21.542493625 71.501691625L20.8376871582 70.7741783223L20.2044756094 69.9728021719L19.8561579121 69.0763275918L19.8554901746 68.5857922712L20.006033 68.063519L29.588821 56.229322L28.7185727813 54.8361172969L27.979439 53.337984125L27.7761234023 52.5380057402L27.7460864688 51.6979188906L27.9361615508 50.813098127L28.393182 49.878918L31.075870875 43.46089625L32.2695161719 40.1975974688L33.204474 36.811159L33.7438881563 34.5959816621L34.5407045625 32.4897703594L35.56888425 30.4964171582L36.80238825 28.619814125L38.2151775938 26.8638533262L39.7812133125 25.2324268281L41.4744564375 23.7294266973L43.268868 22.358745L49.1454915 19.655318375L52.1593007344 18.4440919219L55.2208845 17.3659465L58.3283249531 16.4504494531L61.47970425 15.727168125L64.6731045469 15.2256698594L67.906608 14.975522L69.9864548887 14.9749417969L72.0324202344 15.1751779375L76.051070875 16.00893675L80.0192890781 17.1384734375L83.993804 18.225463L86.2998492969 19.7064101113L88.47417425 21.3573570156L90.5234250781 23.1589099434L92.454248 25.091675125L95.987195 29.2732671719L99.126185 33.746983L101.435276016 37.6533399063L103.640854375 41.65353775L104.611710439 43.7101188789L105.444949297 45.8157104688L106.1033246 47.9788292617L106.54959 50.207992L106.722562969 53.5792656094L107.01379125 56.946929375L107.239688906 60.3138339531L107.21667 63.68283L106.883432344 67.2096557969L106.10499375 70.621627625L104.886318281 73.9025866406L103.23237 77.036374L101.292022797 80.0163483594L99.369139625 82.990303875L98.5428010059 84.5332118809L97.8750931406 86.1444399531L97.4174376113 87.8472630176L97.221256 89.664956L96.390777373 91.2729602168L95.1856647344 92.5425595469L93.6972238223 93.5559546348L92.016760375 94.395346125L88.4449888281 95.8809208906L86.7362922051 96.6915054551L85.200796 97.656889L83.0488532617 98.4239859902L80.9880740313 99.3679803594L77.031499 101.576476125L73.1140567188 103.862006078L71.1021934258 104.902293182L69.018733 105.8042L64.9284923281 107.492057344L61.113731625 109.43993125L53.482511 113.95218L52.8041937488 114.257530242L52.1299285527 114.371263965L51.4594833733 114.313973167L50.7926261719 114.106249844L49.4687475488 113.321873613L48.156436375 112.18287125L45.5590911406 109.499932031L44.2703444629 108.285467129L42.98574 107.37532L41.3730491016 106.664067441L39.6921050625 106.214617031L37.9595791172 105.967729668L36.1921425 105.86416625L32.6192221875 105.850054844L29.106714 105.69837L27.4921491426 105.529601797L25.6810545781 105.580255L21.863902375 105.8313275L20.0551577598 105.777497734L18.4445094844 105.43459125L17.744301634 105.115007822L17.1306140605 104.675483516L16.6157788279 104.100127764L16.212128 103.37305L16.3251895156 100.063087063L16.551607625 96.80445L16.8815213691 95.2542744922L17.4488094219 93.7888054375L18.3231501699 92.4320011641L19.574222 91.20782L20.7531704121 90.3109131113L21.5880274844 89.2095711406L22.1692860957 87.9625276309L22.587439125 86.628516125L23.2963999531 83.9345232969L23.7681935098 82.6920090605L24.438853 81.597461L24.4322572087 81.0160818208L24.2600580293 80.497735457L23.5418536719 79.6103352188L21.471250125 78.154063L20.6108675996 77.4259671914L20.3320347942 77.0270991499L20.1951090156 76.5917490313L20.2308413054 76.1099653462L20.4699827051 75.5717966055L21.681497 74.286498L22.8070913281 73.6403012891L23.0756975645 73.3123372178L23.1821705 72.9791025625L23.0106984219 72.2907411797L22.496639 71.5630565L21.25661375 69.9410746875L20.9385757344 69.0224562734L21.093806 68.015872L30.468271 56.438949L29.6169412031 55.0760312813L28.893875375 53.6104665L28.6949796035 52.8278790586L28.6655956094 52.0060549688L28.8515386543 51.1404692695L29.298624 50.226597L31.92299375 43.9480995L33.0906899063 40.7557425938L34.005322 37.442922L34.5330098008 35.2759012402L35.3125040313 33.2154775469L36.3183318086 31.2654584238L37.52502025 29.429651375L38.9070964727 27.7118639043L40.4390875938 26.1159035156L42.0955207305 24.6455777129L43.850923 23.304694L49.5997927969 20.660037375L55.543110875 18.42043475L58.5829977949 17.5248400547L61.6658685156 16.8172825L64.7898469473 16.3266866328L67.953057 16.081977L69.9876891465 16.0814094961L71.9891764844 16.2772926563L75.920464625 17.092926L79.8024172031 18.1979070938L83.69053 19.261266L85.9464441465 20.7100184746L88.0735005469 22.3250750469L90.0782012676 24.0874635645L91.967048375 25.978211875L95.4231900156 30.0688992656L98.493942 34.44536L100.752831313 38.2667948125L102.910459 42.18003075L103.860208367 44.1919030469L104.675332688 46.2517203125L105.319395414 48.3678141094L105.75596 50.548516L105.92518375 53.8465010938L106.21008 57.140955L106.43106125 60.4346664063L106.40854 63.730424L106.082547812 67.1805802969L105.3210325 70.518376375L104.128848438 73.7280077656L102.51085 76.79367L100.612689953 79.70886375L98.731611625 82.61816775L97.9232375488 84.1275336328L97.2700452344 85.703734125L96.822338459 87.3695382422L96.630421 89.147715L95.8179966582 90.7207622871L94.6390827656 91.9627614844L93.1830000215 92.9541262207L91.539069125 93.775270125L88.0449456719 95.2285499531L86.3733945137 96.0215131348L84.871278 96.96591L82.7661177168 97.716332832L80.7501389844 98.6398070313L76.879577875 100.80029375L73.0472980781 103.036138594L71.0791709863 104.053810449L69.041003 104.93611L64.9376493906 106.644321875L60.994082625 108.667365L53.342344 113.17601L52.089891 113.75241L52.030831 110.17345"
       style="display:inline;opacity:1;fill:none;stroke:#1d0000;stroke-width:0.31792825;stroke-opacity:1" />
  </g>
</svg>
