<?xml version="1.0" encoding="UTF-8" standalone="no"?>
<!-- Created with Inkscape (http://www.inkscape.org/) -->

<svg
   xmlns:dc="http://purl.org/dc/elements/1.1/"
   xmlns:cc="http://creativecommons.org/ns#"
   xmlns:rdf="http://www.w3.org/1999/02/22-rdf-syntax-ns#"
   xmlns:svg="http://www.w3.org/2000/svg"
   xmlns="http://www.w3.org/2000/svg"
   xmlns:sodipodi="http://sodipodi.sourceforge.net/DTD/sodipodi-0.dtd"
   xmlns:inkscape="http://www.inkscape.org/namespaces/inkscape"
   inkscape:version="0.92.4 (5da689c313, 2019-01-14)"
   width="210mm"
   height="297mm"
   viewBox="0 0 210 297"
   version="1.1"
   id="svg4331"
   sodipodi:docname="lenin_coil_curved.svg">
  <defs
     id="defs4325" />
  <sodipodi:namedview
     id="base"
     pagecolor="#ffffff"
     bordercolor="#666666"
     borderopacity="1.0"
     inkscape:pageopacity="0.0"
     inkscape:pageshadow="2"
     inkscape:zoom="1.979899"
     inkscape:cx="308.55943"
     inkscape:cy="882.51741"
     inkscape:document-units="mm"
     inkscape:current-layer="layer1"
     showgrid="false"
     inkscape:window-width="1920"
     inkscape:window-height="996"
     inkscape:window-x="-4"
     inkscape:window-y="-4"
     inkscape:window-maximized="1" />
  <metadata
     id="metadata4328">
    <rdf:RDF>
      <cc:Work
         rdf:about="">
        <dc:format>image/svg+xml</dc:format>
        <dc:type
           rdf:resource="http://purl.org/dc/dcmitype/StillImage" />
        <dc:title></dc:title>
      </cc:Work>
    </rdf:RDF>
  </metadata>
  <g
     inkscape:label="Layer 1"
     inkscape:groupmode="layer"
     id="layer1"
     style="opacity:1">
    <path
       style="display:inline;opacity:1;fill:none;stroke:#1d0000;stroke-width:0.31792825;stroke-opacity:1"
       d="m 52.33789,118.2645 -0.0042,-0.79323 c -0.01921,-0.62897 0.159366,-0.78653 -0.234823,-1.36338 -0.164105,-0.24015 -0.668058,-0.19451 -0.916007,-0.13531 -3.004749,0.54914 -6.196519,-5.26467 -9.256468,-7.08164 -4.315578,-2.48554 -9.67825,-1.22065 -14.45092,-1.74606 -4.118771,-0.89084 -11.133298,1.5453 -13.043276,-2.94289 0.336231,-4.542053 -0.52574,-9.995566 3.535416,-13.18827 3.834852,-2.152125 2.599626,-6.496577 4.821579,-9.275859 0.480105,-3.421888 -7.728006,-3.671041 -2.836177,-7.681783 4.355943,-1.784633 -2.097425,-3.218172 -0.820625,-6.146369 3.246588,-3.996567 6.121278,-7.768554 9.335522,-11.817728 -1.101302,-1.837599 -2.43891,-4.095933 -0.792619,-6.704563 1.792194,-4.397549 3.860942,-8.598192 4.900636,-13.310432 1.092005,-6.161298 5.263513,-11.180994 10.251292,-14.720797 7.839079,-3.845589 16.259746,-7.20901 25.095274,-7.52033 5.701684,-0.312595 10.958218,2.016109 16.385936,3.310292 6.448548,3.774094 11.393789,9.605903 15.41339,15.809757 3.07135,5.27232 6.6709,10.614465 7.56125,16.766695 0.0715,4.582245 0.96286,9.146944 0.67946,13.725066 -0.14801,4.860436 -1.51875,9.452797 -4.05828,13.601522 -2.46081,4.135466 -5.99153,7.748826 -6.122735,12.863097 -1.664285,4.90165 -8.390879,5.233527 -12.24369,8.140347 -5.99345,1.795763 -10.701697,6.084365 -16.482569,8.298595 -4.77931,1.78832 -9.91516,5.17451 -14.826239,7.99918 -0.163095,0.0997 -0.564681,0.38763 -0.991903,0.53264 -0.427222,0.14501 -0.900165,0.21568 -1.560491,0.25448 0,0 -0.329624,-0.002 -0.990057,-0.0567 -0.395248,0.029 -0.603649,-0.1623 -0.955597,-0.34449 -2.891756,-1.49696 -4.362688,-5.12328 -7.346509,-6.43872 -4.236899,-2.44024 -9.501795,-1.19841 -14.187453,-1.71423 -4.043679,-0.8746 -11.063953,1.61736 -12.939107,-2.78902 0.330099,-4.459259 -0.449337,-9.546073 3.537776,-12.680567 3.764936,-2.11289 2.619053,-6.74563 4.800494,-9.474244 0.471347,-3.359501 -7.587118,-3.604111 -2.78448,-7.541731 4.276542,-1.752096 -2.05918,-3.159498 -0.805657,-6.034309 3.187399,-3.923702 6.427142,-7.858849 9.582788,-11.834197 -1.081222,-1.8041 -2.811917,-3.789333 -1.195639,-6.350404 1.759526,-4.317373 3.790547,-8.441432 4.811292,-13.067759 1.072089,-6.048968 5.167551,-10.977147 10.064394,-14.452414 7.696166,-3.775477 15.963298,-7.077578 24.63774,-7.383223 5.597737,-0.306894 10.758432,1.979353 16.087196,3.249941 6.330989,3.705287 11.186068,9.430772 15.132381,15.52152 3.015365,5.176197 6.549285,10.420946 7.423405,16.461009 0.0702,4.498705 0.94531,8.980182 0.66708,13.474838 -0.14531,4.771822 -1.49106,9.280457 -3.9843,13.353544 -2.41594,4.060067 -5.882303,7.607552 -6.011114,12.628582 -1.633937,4.812285 -8.237898,5.138111 -12.02046,7.991933 -5.884178,1.763021 -10.506593,5.973441 -16.182063,8.147311 -5.729323,2.05896 -10.17194,4.92033 -15.536222,8.14798 -3.62891,2.17612 -7.075032,-4.70199 -10.496771,-6.57686 -4.194686,-2.2984 -9.295232,-1.17236 -13.879026,-1.67695 -3.955772,-0.85561 -11.060197,1.98527 -12.894586,-2.32532 0.322923,-4.362316 -0.538342,-9.098874 3.362094,-12.16523 3.683089,-2.066964 2.730613,-6.94106 4.864631,-9.610359 0.4611,-3.286468 -7.455589,-3.458939 -2.757356,-7.310963 4.183573,-1.713998 -1.813964,-3.458304 -0.587691,-6.270626 3.118107,-3.838404 6.28742,-7.687996 9.374465,-11.576923 -1.057717,-1.764881 -2.750789,-3.706955 -1.169647,-6.212352 1.721276,-4.223516 3.708144,-8.257919 4.706698,-12.783675 1.048783,-5.917467 5.055212,-10.738512 9.845601,-14.138228 7.528857,-3.693402 15.616266,-6.923717 24.102134,-7.222717 5.476045,-0.300222 10.524551,1.936323 15.737473,3.179289 6.193361,3.624737 10.942884,9.225754 14.803412,15.184094 2.949808,5.063669 6.406898,10.194401 7.262018,16.103156 0.0687,4.400907 0.92476,8.784961 0.65258,13.181908 -0.14215,4.668091 -1.45864,9.0787 -3.89769,13.063246 -2.36341,3.971808 -5.754416,7.442171 -5.880429,12.354045 -1.598416,4.707669 -8.058808,5.026413 -11.759143,7.818195 -5.756258,1.7247 -10.278184,5.84359 -15.830275,7.9702 -5.60477,2.01418 -10.620798,5.1892 -15.698659,8.2399 l -1.252453,0.5764 -0.05906,-3.57896"
       id="path3091-2-4"
       inkscape:connector-curvature="0"
       sodipodi:nodetypes="cccccccccccccccccccccscccccccccccccccccccccccccccccccccccccccccccccccsccc" />
  </g>
</svg>
