<?xml version="1.0" encoding="UTF-8" standalone="no"?>
<!-- Created with Inkscape (http://www.inkscape.org/) -->

<svg
   xmlns:dc="http://purl.org/dc/elements/1.1/"
   xmlns:cc="http://creativecommons.org/ns#"
   xmlns:rdf="http://www.w3.org/1999/02/22-rdf-syntax-ns#"
   xmlns:svg="http://www.w3.org/2000/svg"
   xmlns="http://www.w3.org/2000/svg"
   xmlns:sodipodi="http://sodipodi.sourceforge.net/DTD/sodipodi-0.dtd"
   xmlns:inkscape="http://www.inkscape.org/namespaces/inkscape"
   width="210mm"
   height="297mm"
   viewBox="0 0 210 297"
   version="1.1"
   id="svg961"
   sodipodi:docname="medved-scanned-path2.svg"
   inkscape:version="0.92.4 (5da689c313, 2019-01-14)">
  <defs
     id="defs955" />
  <sodipodi:namedview
     id="base"
     pagecolor="#ffffff"
     bordercolor="#666666"
     borderopacity="1.0"
     inkscape:pageopacity="0.0"
     inkscape:pageshadow="2"
     inkscape:zoom="1.4"
     inkscape:cx="288.75936"
     inkscape:cy="1068.9327"
     inkscape:document-units="mm"
     inkscape:current-layer="layer1"
     showgrid="false"
     inkscape:window-width="1920"
     inkscape:window-height="996"
     inkscape:window-x="-4"
     inkscape:window-y="-4"
     inkscape:window-maximized="1" />
  <metadata
     id="metadata958">
    <rdf:RDF>
      <cc:Work
         rdf:about="">
        <dc:format>image/svg+xml</dc:format>
        <dc:type
           rdf:resource="http://purl.org/dc/dcmitype/StillImage" />
      </cc:Work>
    </rdf:RDF>
  </metadata>
  <g
     inkscape:label="Layer 1"
     inkscape:groupmode="layer"
     id="layer1">
    <path
       inkscape:connector-curvature="0"
       id="path20"
       d="m 34.856137,6.9858932 2.438762,-1.3257907 1.290419,-0.5071494 1.365514,-0.3217593 2.782841,-0.3071063 2.803359,0.048442 2.746994,0.4885311 2.61375,1.0131607 1.310125,0.5707801 0.63851,-0.00995 0.509092,-0.5062748 0.36508,-0.8688293 0.224221,-0.9334305 0.285634,-0.9108653 0.549318,-0.8011344 0.804029,-0.7010496 0.929612,-0.4775344 1.01896,-0.2303733 1.072068,0.040434 1.298469,0.3184765 1.101262,0.7467667 0.832101,1.0573426 0.490989,1.2502042 0.354575,0.3185888 0.386347,0.1376707 0.829853,-0.1236579 1.621279,-0.8370235 1.286557,-0.1943556 1.288155,0.069106 1.218474,0.3787488 1.077514,0.7345741 1.062878,1.1134904 0.584803,0.4182872 0.737648,0.1561708 0.815883,0.57484 0.994733,0.1593319 1.06426,-0.0021 1.024459,0.090553 2.518088,0.00643 1.14166,0.2954912 0.448288,0.3635115 0.331091,0.5617161 0.167072,1.5361237 0.288813,1.539047 0.19331,1.530856 -0.119442,1.511553 -1.96841,1.23674 -2.094136,0.993236 -0.03866,0.264791 0.148705,0.152078 0.665399,0.104148 0.832529,0.0677 0.611431,0.307507 0.613558,0.777751 0.508768,0.909812 0.103856,0.909629 -0.193701,0.41342 -0.407475,0.363781 -2.650323,1.621803 -1.35941,0.738037 -1.441882,0.581097 -1.4339,0.464089 -1.329634,0.728401 -1.178708,0.950593 -0.981125,1.13067 -0.07926,0.916774 -0.198322,0.906858 -0.450729,0.736831 -0.83648,0.406699 -1.854336,0.01099 -1.891959,-0.09572 -1.882085,0.05128 -1.824717,0.452003 -1.656626,0.663725 -1.505967,0.90739 -1.356844,1.125518 -1.209252,1.31811 -1.047302,1.685693 -0.734619,1.826204 -0.467448,1.92063 -0.245787,1.96897 -0.324248,1.926123 0.100765,0.927431 0.528336,0.817148 1.274857,1.593486 0.58099,0.829071 0.409799,0.906494 -0.58054,1.576912 -0.436229,0.696194 -0.62029,0.489868 -4.421398,0.05166 -4.394099,-0.09296 -0.939488,-1.32848 -0.791089,-1.406535 -1.479136,-2.877551 -0.212686,0.567943 -0.01065,0.564089 0.373711,1.121625 0.548564,1.121222 0.301222,1.130824 -0.08766,0.475439 -0.22223,0.339317 -0.731726,0.359529 -0.920695,0.08282 -0.876803,-0.01536 -3.524756,0.0502 -3.501822,-0.08447 -0.694562,-0.373671 -0.487086,-0.532067 -0.257781,-0.669467 -0.0067,-0.785869 -0.150647,-2.387931 -0.0932,-2.372939 -0.04556,-0.439151 -0.166934,-0.216192 -0.584899,0.04996 -1.382222,0.723486 -0.341342,0.63784 -0.09055,0.631076 0.351949,1.241837 0.697261,1.214721 0.604029,1.187567 0.217359,0.804235 -0.166685,0.754879 -0.517502,0.516639 -0.835104,0.08951 -9.673544,0.02061 -1.052646,-1.081722 -0.859948,-1.258373 -1.619692,-2.601466 -0.400759,-0.737298 -0.624156,-0.578741 -0.689459,-0.143055 -0.319811,0.178459 -0.276852,0.391304 -0.224704,0.38766 -0.06126,0.40071 0.231533,0.81469 0.92495,1.501242 0.299329,0.816867 0.05744,0.885074 -0.309264,0.723509 -0.331139,0.229365 -0.469612,0.102805 -4.5913207,0.01994 L 4.3379559,52.368928 3.795962,52.009441 3.4152212,51.537831 2.9984806,50.361748 2.8096966,49.04768 2.570832,47.802624 1.4049396,40.628977 l 0.039577,-0.698499 0.2248759,-0.606145 0.8131602,-1.031498 0.9768892,-0.950889 0.7556396,-1.062824 -0.213425,-1.176978 -0.5535749,-1.070586 -0.64887,-1.04477 -0.499311,-1.099527 -0.3274455,-1.77915 0.094147,-1.823629 0.3662508,-1.817494 0.4888655,-1.760741 0.8950136,-2.359698 1.148198,-2.250321 1.4013438,-2.095766 1.6544512,-1.896034 1.4592722,-1.34849 1.5630808,-1.216315 1.671021,-1.059535 1.783093,-0.878149 2.352295,-0.97856 2.473058,-0.590479 2.537263,-0.2480623 2.544909,0.048691 2.565401,-0.093116 2.510696,-0.5043498 2.427224,-0.8417576 2.314987,-1.1053395 0.633112,-0.303073 v 0"
       style="fill:none;fill-opacity:1;fill-rule:nonzero;stroke:#000000;stroke-width:0.3150124;stroke-miterlimit:4;stroke-dasharray:none;stroke-opacity:1" />
  </g>
</svg>
