<svg width="4159" height="2129" viewBox="0 0 4159 2129" fill="none" xmlns="http://www.w3.org/2000/svg">
<rect width="4159" height="2129" fill="white"/>
<line x1="85.4713" y1="1560.71" x2="184.471" y2="2059.71" stroke="#00FF57" stroke-width="3"/>
<line x1="84.9323" y1="1559.95" x2="381.932" y2="1258.95" stroke="#00FF57" stroke-width="3"/>
<line x1="381.753" y1="1259.83" x2="181.753" y2="960.834" stroke="#00FF57" stroke-width="3"/>
<line x1="183.655" y1="960.336" x2="381.655" y2="559.336" stroke="#00FF57" stroke-width="3"/>
<line x1="383.937" y1="557.942" x2="581.937" y2="358.942" stroke="#00FF57" stroke-width="3"/>
<line x1="581.176" y1="356.747" x2="882.176" y2="158.747" stroke="#00FF57" stroke-width="3"/>
<line x1="883.348" y1="154.649" x2="1082.35" y2="58.649" stroke="#00FF57" stroke-width="3"/>
<line x1="1082.25" y1="57.5207" x2="1683.25" y2="158.521" stroke="#00FF57" stroke-width="3"/>
<line x1="1683.22" y1="156.516" x2="2033.22" y2="208.516" stroke="#00FF57" stroke-width="3"/>
<line x1="2034" y1="207.5" x2="2333" y2="208.471" stroke="#00FF57" stroke-width="3"/>
<line x1="2332.47" y1="208.577" x2="2783.47" y2="358.577" stroke="#00FF57" stroke-width="3"/>
<line x1="2787.46" y1="361.573" x2="3081.46" y2="456.573" stroke="#00FF57" stroke-width="3"/>
<line x1="3134.57" y1="409.554" x2="3181.57" y2="258.554" stroke="#00FF57" stroke-width="3"/>
<path d="M3183.77 256.461C3240.5 179 3338 186.5 3383.5 259" stroke="#00FF57" stroke-width="3"/>
<line x1="3383.42" y1="258.52" x2="3434.42" y2="409.52" stroke="#00FF57" stroke-width="3"/>
<line x1="3432.53" y1="408.577" x2="3582.53" y2="358.577" stroke="#00FF57" stroke-width="3"/>
<line x1="3583.68" y1="357.661" x2="3783.68" y2="458.661" stroke="#00FF57" stroke-width="3"/>
<line x1="3783.28" y1="458.526" x2="4033.28" y2="505.526" stroke="#00FF57" stroke-width="3"/>
<line x1="4033.09" y1="504.97" x2="4084.09" y2="558.97" stroke="#00FF57" stroke-width="3"/>
<line x1="4085.5" y1="559.016" x2="4084.44" y2="660.015" stroke="#00FF57" stroke-width="3"/>
<line x1="4086.06" y1="659.061" x2="3984.06" y2="761.061" stroke="#00FF57" stroke-width="3"/>
<line x1="3982.06" y1="856.939" x2="4034.06" y2="908.939" stroke="#00FF57" stroke-width="3"/>
<line x1="4033.47" y1="911.423" x2="3733.47" y2="1011.42" stroke="#00FF57" stroke-width="3"/>
<path d="M3732.06 1011.06C3530.69 1022.27 3474.08 1129.73 3484.06 1261.06" stroke="#00FF57" stroke-width="3"/>
<path d="M3482.33 1260.34C3464 1185.5 3428 1174.5 3385 1161" stroke="#00FF57" stroke-width="3"/>
<path d="M3284.82 1160.26L2983.82 1357.26" stroke="#00FF57" stroke-width="3"/>
<line x1="2984.39" y1="1357.44" x2="3184.39" y2="1859.44" stroke="#00FF57" stroke-width="3"/>
<line x1="3186.08" y1="1857.96" x2="3284.03" y2="1959" stroke="#00FF57" stroke-width="3"/>
<line x1="3285.04" y1="1961.08" x2="3186.04" y2="2057.08" stroke="#00FF57" stroke-width="3"/>
<line x1="3182" y1="2057.5" x2="2583" y2="2058.5" stroke="#00FF57" stroke-width="3"/>
<line x1="2582.58" y1="2057.48" x2="2481.58" y2="1760.48" stroke="#00FF57" stroke-width="3"/>
<path d="M2481.98 1762.95C2457.26 1711.84 2414.21 1712.87 2384 1762" stroke="#00FF57" stroke-width="3"/>
<line x1="2385.5" y1="1761.01" x2="2384.47" y2="1960.01" stroke="#00FF57" stroke-width="3"/>
<line x1="2385.05" y1="1958.93" x2="2434.05" y2="2006.93" stroke="#00FF57" stroke-width="3"/>
<line x1="2435.03" y1="2010.09" x2="2384.03" y2="2058.09" stroke="#00FF57" stroke-width="3"/>
<line x1="2385" y1="2059.5" x2="1783" y2="2057.5" stroke="#00FF57" stroke-width="3"/>
<line x1="1784.59" y1="2058.51" x2="1731.59" y2="1910.51" stroke="#00FF57" stroke-width="3"/>
<line x1="1735.62" y1="1907.42" x2="1881.62" y2="1559.42" stroke="#00FF57" stroke-width="3"/>
<line x1="1783.47" y1="1461.42" x2="1483.47" y2="1561.42" stroke="#00FF57" stroke-width="3"/>
<line x1="1484.25" y1="1759.17" x2="1684.25" y2="2059.17" stroke="#00FF57" stroke-width="3"/>
<line x1="1684.89" y1="2061.5" x2="1032.89" y2="2011.5" stroke="#00FF57" stroke-width="3"/>
<line x1="1031.66" y1="2011.67" x2="831.656" y2="1607.67" stroke="#00FF57" stroke-width="3"/>
<path d="M832.068 1609.05C713 1497 507.5 1633 635.068 1809.05" stroke="#00FF57" stroke-width="3"/>
<line x1="634.684" y1="1806.67" x2="833.684" y2="1908.67" stroke="#00FF57" stroke-width="3"/>
<line x1="833.5" y1="1907.99" x2="834.5" y2="2009.99" stroke="#00FF57" stroke-width="3"/>
<line x1="835.121" y1="2009.5" x2="183.166" y2="2062.06" stroke="#00FF57" stroke-width="3"/>
<line x1="3081.99" y1="456.888" x2="3134.99" y2="408.888" stroke="#00FF57" stroke-width="3"/>
<line x1="3284" y1="1158.5" x2="3386" y2="1158.5" stroke="#00FF57" stroke-width="3"/>
<path d="M1784.36 1460.65C1861 1444 1898.5 1512 1880.36 1559.65" stroke="#00FF57" stroke-width="3"/>
<path d="M1484.5 1561C1413.5 1613 1404 1699.5 1484.5 1759" stroke="#00FF57" stroke-width="3"/>
<path d="M3984.5 759.03C3952.5 791.5 3947.5 825.5 3982.5 858.03" stroke="#00FF57" stroke-width="3"/>
<circle cx="3703.5" cy="1234.5" r="224" stroke="black" stroke-opacity="0.3"/>
<circle cx="3371" cy="1272" r="111.5" stroke="black" stroke-opacity="0.3"/>
<circle cx="1809" cy="1534" r="77.5" stroke="black" stroke-opacity="0.3"/>
<circle cx="1543" cy="1660" r="115.5" stroke="black" stroke-opacity="0.3"/>
<circle cx="4018" cy="810" r="60.5" stroke="black" stroke-opacity="0.3"/>
<circle cx="732" cy="1706" r="138.5" stroke="black" stroke-opacity="0.3"/>
<circle cx="3284" cy="317" r="116.5" stroke="black" stroke-opacity="0.3"/>
<circle cx="2434" cy="1774" r="49.5" stroke="black" stroke-opacity="0.3"/>
</svg>
