<svg width="4005" height="2008" viewBox="0 0 4005 2008" fill="none" xmlns="http://www.w3.org/2000/svg">
<line x1="2.47132" y1="1504.71" x2="101.471" y2="2003.71" stroke="#00FF57" stroke-width="3"/>
<line x1="1.93227" y1="1503.95" x2="298.932" y2="1202.95" stroke="#00FF57" stroke-width="3"/>
<line x1="298.753" y1="1203.83" x2="98.7532" y2="904.834" stroke="#00FF57" stroke-width="3"/>
<line x1="100.655" y1="904.336" x2="298.655" y2="503.336" stroke="#00FF57" stroke-width="3"/>
<line x1="300.937" y1="501.942" x2="498.937" y2="302.942" stroke="#00FF57" stroke-width="3"/>
<line x1="498.176" y1="300.747" x2="799.176" y2="102.747" stroke="#00FF57" stroke-width="3"/>
<line x1="800.348" y1="98.649" x2="999.348" y2="2.64899" stroke="#00FF57" stroke-width="3"/>
<line x1="999.249" y1="1.52074" x2="1600.25" y2="102.521" stroke="#00FF57" stroke-width="3"/>
<line x1="1600.22" y1="100.516" x2="1950.22" y2="152.516" stroke="#00FF57" stroke-width="3"/>
<line x1="1951" y1="151.5" x2="2250" y2="152.471" stroke="#00FF57" stroke-width="3"/>
<line x1="2249.47" y1="152.577" x2="2700.47" y2="302.577" stroke="#00FF57" stroke-width="3"/>
<line x1="2704.46" y1="305.573" x2="2998.46" y2="400.573" stroke="#00FF57" stroke-width="3"/>
<line x1="3051.57" y1="353.554" x2="3098.57" y2="202.554" stroke="#00FF57" stroke-width="3"/>
<line x1="3101.01" y1="201.5" x2="3300.01" y2="202.5" stroke="#00FF57" stroke-width="3"/>
<line x1="3300.42" y1="202.52" x2="3351.42" y2="353.52" stroke="#00FF57" stroke-width="3"/>
<line x1="3349.53" y1="352.577" x2="3499.53" y2="302.577" stroke="#00FF57" stroke-width="3"/>
<line x1="3500.68" y1="301.661" x2="3700.68" y2="402.661" stroke="#00FF57" stroke-width="3"/>
<line x1="3700.28" y1="402.526" x2="3950.28" y2="449.526" stroke="#00FF57" stroke-width="3"/>
<line x1="3950.09" y1="448.97" x2="4001.09" y2="502.97" stroke="#00FF57" stroke-width="3"/>
<line x1="4002.5" y1="503.016" x2="4001.44" y2="604.015" stroke="#00FF57" stroke-width="3"/>
<line x1="4003.04" y1="603.085" x2="3850.04" y2="749.085" stroke="#00FF57" stroke-width="3"/>
<line x1="3850.08" y1="747.96" x2="3951.08" y2="852.96" stroke="#00FF57" stroke-width="3"/>
<line x1="3950.47" y1="855.423" x2="3650.47" y2="955.423" stroke="#00FF57" stroke-width="3"/>
<line x1="3649.06" y1="955.056" x2="3401.06" y2="1205.06" stroke="#00FF57" stroke-width="3"/>
<line x1="3399.33" y1="1204.34" x2="3199.33" y2="1105.34" stroke="#00FF57" stroke-width="3"/>
<line x1="3201.82" y1="1104.26" x2="2900.82" y2="1301.26" stroke="#00FF57" stroke-width="3"/>
<line x1="2901.39" y1="1301.44" x2="3101.39" y2="1803.44" stroke="#00FF57" stroke-width="3"/>
<line x1="3103.08" y1="1801.96" x2="3201.03" y2="1903" stroke="#00FF57" stroke-width="3"/>
<line x1="3202.04" y1="1905.08" x2="3103.04" y2="2001.08" stroke="#00FF57" stroke-width="3"/>
<line x1="3099" y1="2001.5" x2="2500" y2="2002.5" stroke="#00FF57" stroke-width="3"/>
<line x1="2499.58" y1="2001.48" x2="2398.58" y2="1704.48" stroke="#00FF57" stroke-width="3"/>
<line x1="2398.99" y1="1706.5" x2="2299.99" y2="1705.54" stroke="#00FF57" stroke-width="3"/>
<line x1="2302.5" y1="1705.01" x2="2301.47" y2="1904.01" stroke="#00FF57" stroke-width="3"/>
<line x1="2302.05" y1="1902.93" x2="2351.05" y2="1950.93" stroke="#00FF57" stroke-width="3"/>
<line x1="2352.03" y1="1954.09" x2="2301.03" y2="2002.09" stroke="#00FF57" stroke-width="3"/>
<line x1="2302" y1="2003.5" x2="1700" y2="2001.5" stroke="#00FF57" stroke-width="3"/>
<line x1="1701.59" y1="2002.51" x2="1648.59" y2="1854.51" stroke="#00FF57" stroke-width="3"/>
<line x1="1652.57" y1="1851.54" x2="1798.57" y2="1403.54" stroke="#00FF57" stroke-width="3"/>
<line x1="1801.48" y1="1402.42" x2="1350.48" y2="1555.42" stroke="#00FF57" stroke-width="3"/>
<line x1="1352.31" y1="1553.27" x2="1601.31" y2="2003.27" stroke="#00FF57" stroke-width="3"/>
<line x1="1601.99" y1="2005.5" x2="999.993" y2="2002.5" stroke="#00FF57" stroke-width="3"/>
<line x1="998.576" y1="2002.47" x2="848.576" y2="1548.47" stroke="#00FF57" stroke-width="3"/>
<line x1="850.03" y1="1549.5" x2="550.03" y2="1555.5" stroke="#00FF57" stroke-width="3"/>
<line x1="551.5" y1="1554" x2="551.579" y2="1754" stroke="#00FF57" stroke-width="3"/>
<line x1="551.684" y1="1750.67" x2="750.684" y2="1852.67" stroke="#00FF57" stroke-width="3"/>
<line x1="750.426" y1="1851.53" x2="799.426" y2="2001.53" stroke="#00FF57" stroke-width="3"/>
<line x1="800.003" y1="2004.5" x2="100.048" y2="2006.06" stroke="#00FF57" stroke-width="3"/>
<line x1="2998.99" y1="400.888" x2="3051.99" y2="352.888" stroke="#00FF57" stroke-width="3"/>
</svg>
